<?xml version="1.0" encoding="UTF-8" standalone="no"?>
<!DOCTYPE svg PUBLIC "-//W3C//DTD SVG 1.1//EN"
 "http://www.w3.org/Graphics/SVG/1.1/DTD/svg11.dtd">
<!-- Generated by graphviz version 2.38.0 (20140413.2041)
 -->
<!-- Title: G Pages: 1 -->
<svg width="277pt" height="258pt"
 viewBox="0.00 0.00 277.00 258.00" xmlns="http://www.w3.org/2000/svg" xmlns:xlink="http://www.w3.org/1999/xlink">
<g id="graph0" class="graph" transform="scale(1 1) rotate(0) translate(4 254)">
<title>G</title>
<polygon fill="white" stroke="none" points="-4,4 -4,-254 273,-254 273,4 -4,4"/>
<g id="clust1" class="cluster"><title>cluster_Global</title>
<path fill="none" stroke="gray" d="M20,-8C20,-8 249,-8 249,-8 255,-8 261,-14 261,-20 261,-20 261,-230 261,-230 261,-236 255,-242 249,-242 249,-242 20,-242 20,-242 14,-242 8,-236 8,-230 8,-230 8,-20 8,-20 8,-14 14,-8 20,-8"/>
<text text-anchor="middle" x="134.5" y="-229.2" font-family="Times,serif" font-size="11.00" fill="gray">Global</text>
</g>
<!-- \\TCPDF -->
<g id="node1" class="node"><title>\\TCPDF</title>
<polygon fill="none" stroke="black" points="70,-106 16,-106 16,-70 70,-70 70,-106"/>
<text text-anchor="middle" x="43" y="-85.2" font-family="Courier,monospace" font-size="11.00">TCPDF</text>
</g>
<!-- \\TCPDFBarcode -->
<g id="node2" class="node"><title>\\TCPDFBarcode</title>
<polygon fill="none" stroke="black" points="246.5,-214 148.5,-214 148.5,-178 246.5,-178 246.5,-214"/>
<text text-anchor="middle" x="197.5" y="-193.2" font-family="Courier,monospace" font-size="11.00">TCPDFBarcode</text>
</g>
<!-- \\TCPDF2DBarcode -->
<g id="node3" class="node"><title>\\TCPDF2DBarcode</title>
<polygon fill="none" stroke="black" points="253,-160 142,-160 142,-124 253,-124 253,-160"/>
<text text-anchor="middle" x="197.5" y="-139.2" font-family="Courier,monospace" font-size="11.00">TCPDF2DBarcode</text>
</g>
<!-- \\TCPDF_IMPORT -->
<g id="node4" class="node"><title>\\TCPDF_IMPORT</title>
<polygon fill="none" stroke="black" points="246.5,-106 148.5,-106 148.5,-70 246.5,-70 246.5,-106"/>
<text text-anchor="middle" x="197.5" y="-85.2" font-family="Courier,monospace" font-size="11.00">TCPDF_IMPORT</text>
</g>
<!-- \\TCPDF_IMPORT&#45;&gt;\\TCPDF -->
<g id="edge1" class="edge"><title>\\TCPDF_IMPORT&#45;&gt;\\TCPDF</title>
<path fill="none" stroke="black" d="M148.248,-88C126.253,-88 100.648,-88 80.3187,-88"/>
<polygon fill="none" stroke="black" points="80.2157,-84.5001 70.2157,-88 80.2156,-91.5001 80.2157,-84.5001"/>
</g>
<!-- \\TCPDF_PARSER -->
<g id="node5" class="node"><title>\\TCPDF_PARSER</title>
<polygon fill="none" stroke="black" points="246.5,-52 148.5,-52 148.5,-16 246.5,-16 246.5,-52"/>
<text text-anchor="middle" x="197.5" y="-31.2" font-family="Courier,monospace" font-size="11.00">TCPDF_PARSER</text>
</g>
</g>
</svg>
